<svg width="30" height="30" viewBox="0 0 30 30" fill="none" xmlns="http://www.w3.org/2000/svg">
<path d="M17.5594 26.6789C17.5594 26.6789 16.2234 26.5734 16.1695 25.7906L15.4102 23.5851L18.7125 20.5148C18.7125 20.5148 21.1336 20.468 21.2719 20.468C21.4125 20.468 22.0617 23.5851 22.0617 23.5851L20.8992 25.493L17.5594 26.6789Z" fill="#2F2F2F"/>
<path d="M17.5851 12.593C17.6578 13.2399 17.7961 13.8047 18.2484 14.2805C18.6117 14.6602 18.9914 14.9836 19.3265 15.3891C20.2922 16.5586 21.9187 16.9617 22.9172 18.1875C23.5828 19.0055 24.0351 20.0086 24.2648 21.0258C24.5226 22.1695 24.682 23.4328 24.3633 24.5578C23.925 26.1 22.5773 26.2875 21.1687 26.5008C20.5219 26.5992 19.8633 26.6555 19.207 26.6742C18.6844 26.6883 18.0797 26.7539 17.557 26.6813C17.1 26.6156 17.0133 25.9969 17.1375 25.6336C17.2687 25.2422 17.6625 25.0945 18.0305 25.0242C18.2109 24.9891 18.4008 25.0406 18.5836 25.0102C18.9234 24.9563 19.0664 24.7336 19.0734 24.3938C19.0805 23.9297 19.2398 23.543 19.4531 23.1375C19.5492 22.9547 19.7109 22.793 19.8656 22.6547C20.0226 22.5094 20.2945 22.3102 20.1445 22.057C19.8867 21.6164 19.1039 22.0219 18.839 22.2117C18.4289 22.5024 18.1383 22.943 18.0117 23.4281C17.8312 24.1008 17.693 24.1453 17.0648 24.3844C16.6945 24.5274 16.3523 24.7641 16.2117 25.132C16.0406 25.5891 16.3266 26.1281 16.0312 26.5266C15.7992 26.8453 15.3492 27.0211 14.9367 27.0047C13.8726 26.9578 13.1601 26.6977 13.3828 25.6149C13.5234 24.9352 13.4789 24.1899 13.5211 23.4844C13.5351 23.2195 13.5609 22.8141 13.2961 22.6289C13.193 22.5539 13.05 22.5422 12.9305 22.5492C12.8484 22.5516 12.6422 22.5399 12.5648 22.5656C12.3375 22.6383 12.3914 23.0039 12.3937 23.1961C12.3961 23.5664 12.389 23.9438 12.3797 24.3094C12.3703 24.743 12.4172 25.1719 12.4219 25.6008C12.4242 25.882 12.45 26.2289 12.218 26.4281C11.9531 26.6625 11.5476 26.7141 11.1867 26.7258C10.7531 26.7422 10.2586 26.7094 9.89764 26.4563C9.15936 25.9359 9.41014 24.743 9.47811 24.0469C9.52264 23.5945 9.48983 23.1234 9.47811 22.6594C9.46874 22.2422 9.45702 21.8227 9.44764 21.4008C9.44296 21.2274 9.41952 21.0399 9.42889 20.8617C9.46405 20.3695 9.36327 19.8656 9.34921 19.3547C9.32577 18.4172 9.27655 17.4633 9.27655 16.5094C9.27655 16.1016 9.34686 15.6539 9.46405 15.2672C9.52733 15.0609 9.5953 14.7844 9.70546 14.6039C9.87889 14.3156 10.1789 14.0578 10.4297 13.8328C10.7531 13.5445 11.1375 13.3992 11.5078 13.1766C11.9883 12.8859 12.4898 12.6117 13.0101 12.3891C13.9242 12 14.9016 11.6672 15.9234 11.6297C16.282 11.6156 16.5515 11.5594 16.8984 11.4797C17.2476 11.4 17.4211 11.6344 17.4844 11.9625C17.5383 12.1664 17.5617 12.3797 17.5851 12.593Z" fill="#FEA195"/>
<path d="M13.8586 5.84296C13.8586 5.84296 13.3594 5.23124 12.1969 3.55077C11.4797 2.51015 9.21796 -0.419539 8.07421 0.187492C6.30937 1.1203 6.50625 7.72968 6.50625 7.72968L13.8586 5.84296Z" fill="#FEA195"/>
<path d="M14.5992 5.92267C14.5992 5.92267 15.2156 5.43048 16.7016 4.02423C17.6227 3.15705 20.4422 0.764078 21.4359 1.59142C22.9687 2.87111 21.4008 9.29533 21.4008 9.29533L14.5992 5.92267Z" fill="#FEA195"/>
<path d="M22.3383 12.1594C22.4156 10.118 21.4641 7.90546 19.7883 6.41952C18.4336 5.21483 16.4227 4.46249 14.4 4.2539C12.3773 4.03827 10.2562 4.35702 8.68124 5.24999C6.73124 6.35624 5.34374 8.3203 4.99218 10.3359C4.65937 12.2484 4.84687 14.2289 6.49921 15.757C7.41562 16.6031 8.59921 17.2383 9.84609 17.6437C10.3195 17.7984 11.5477 18.1711 12.8578 18.3094C14.1727 18.4476 15.5695 18.3516 16.0664 18.2976C17.3695 18.1594 18.6609 17.7867 19.732 17.1516C21.6703 15.9984 22.2656 14.1 22.3383 12.1594Z" fill="#FEA195"/>
<path d="M10.7391 11.3953C10.6594 12.1476 10.0523 12.7008 9.38437 12.6305C8.7164 12.5601 8.23593 11.8945 8.31562 11.1398C8.39531 10.3851 9.00234 9.83201 9.6703 9.90233C10.3383 9.97498 10.8164 10.6406 10.7391 11.3953Z" fill="#2F2F2F"/>
<path d="M16.3758 11.9883C16.2961 12.7406 16.7742 13.4086 17.4422 13.4789C18.1101 13.5492 18.7172 12.9961 18.7969 12.2438C18.8766 11.4891 18.3984 10.8211 17.7305 10.7508C17.0601 10.6828 16.4555 11.2336 16.3758 11.9883Z" fill="#2F2F2F"/>
<path d="M13.2937 15.1617C13.282 15.1617 13.2679 15.1617 13.2562 15.1593C13.057 15.1382 12.9117 14.9601 12.9328 14.7586L13.0734 13.4203C13.0945 13.2211 13.275 13.0851 13.4742 13.0968C13.6734 13.1179 13.8187 13.2961 13.7976 13.4976L13.657 14.8336C13.6359 15.0211 13.4789 15.1617 13.2937 15.1617Z" fill="#2F2F2F"/>
<path d="M12.232 16.0359C11.8641 16.0336 11.4938 15.9211 11.2242 15.7148C11.0109 15.5508 10.6711 15.0539 11.0203 14.864C11.0766 14.8336 11.1398 14.8172 11.2031 14.8101C11.3039 14.7961 11.3859 14.8218 11.4703 14.8851C11.6063 14.9859 11.7211 15.1664 11.8898 15.1992C12.4172 15.307 12.8719 15.0375 12.9984 14.5078C13.0313 14.3648 13.043 14.2968 13.2117 14.2804C13.6219 14.2429 13.7203 14.7586 13.6078 15.0656C13.507 15.3398 13.3758 15.6351 13.1203 15.7992C12.8578 15.9656 12.5414 16.0383 12.232 16.0359Z" fill="#2F2F2F"/>
<path d="M14.1516 16.2093C14.5148 16.275 14.8992 16.2304 15.2039 16.0781C15.443 15.9539 15.8695 15.5297 15.5601 15.2789C15.3656 15.1218 15.1945 15.1851 15.0047 15.307C14.5219 15.6187 13.8609 15.3984 13.6992 14.8359C13.6641 14.707 13.7133 14.5031 13.6547 14.3883C13.6266 14.3343 13.582 14.3461 13.5164 14.3226C13.4719 14.3062 13.4437 14.2875 13.3945 14.2851C13.1672 14.2711 13.0359 14.5148 13.0008 14.707C12.982 14.8101 12.9609 14.8968 12.9773 15C13.0266 15.2906 13.1016 15.6023 13.3242 15.8109C13.5492 16.0265 13.8469 16.1531 14.1516 16.2093Z" fill="#2F2F2F"/>
<path d="M12.1875 13.507C12.1805 13.7578 12.3234 14.0343 12.5648 14.2218C12.7617 14.3742 13.0523 14.4726 13.3406 14.5008C13.6289 14.5312 13.9336 14.4961 14.1563 14.3906C14.4328 14.257 14.6297 14.0179 14.6742 13.7695C14.7188 13.5351 14.6883 13.2867 14.4469 13.0945C14.3156 12.9867 14.1445 12.907 13.9641 12.8554C13.8984 12.8343 13.7203 12.7851 13.5328 12.7664C13.343 12.7453 13.1438 12.7547 13.0734 12.7617C12.8883 12.7758 12.7031 12.8203 12.5508 12.8953C12.2766 13.0336 12.1945 13.2656 12.1875 13.507Z" fill="#2F2F2F"/>
<path d="M22.8844 23.2617C23.1703 23.0719 23.4703 23.1563 23.7891 23.1938C25.1625 23.3531 26.7187 24.5578 26.775 25.9922C26.843 27.8344 25.2047 29.1656 23.5734 29.6039C22.3851 29.9227 21.0984 29.9227 19.875 29.8735C19.3406 29.8524 18.375 29.9414 17.9039 29.6414C17.7351 29.536 17.5875 29.3156 17.5101 29.1352C17.2266 28.4766 17.7984 28.0172 18.4101 28.0196C18.8555 28.0219 19.3008 28.0289 19.7484 28.0242C20.7234 28.0172 21.7031 28.0899 22.6664 27.8977C23.543 27.7242 24.8273 27.0375 24.7734 25.9688C24.7336 25.1836 23.8617 25.0289 23.2336 24.9352C23.0742 24.9117 22.9172 24.8602 22.7344 24.8555C22.3758 24.8461 22.3922 24.5086 22.418 24.2461C22.4555 23.8735 22.5141 23.5617 22.8258 23.3063C22.8375 23.2922 22.8609 23.2758 22.8844 23.2617Z" fill="#FEA195"/>
<path d="M5.56641 11.6531C5.54297 11.6531 5.51954 11.6508 5.4961 11.6461L3.56954 11.2687C3.37266 11.2312 3.24375 11.0391 3.2836 10.8422C3.3211 10.6453 3.51797 10.5141 3.71016 10.5562L5.63672 10.9359C5.8336 10.9734 5.9625 11.1656 5.92266 11.3601C5.8875 11.5312 5.73516 11.6531 5.56641 11.6531Z" fill="#FEA195"/>
<path d="M3.58593 13.1297C3.40546 13.1297 3.25077 12.9961 3.22734 12.8133C3.19921 12.6141 3.33984 12.4336 3.53906 12.4055L5.48671 12.15C5.68124 12.1219 5.8664 12.2625 5.89452 12.4617C5.92031 12.6609 5.77968 12.8438 5.58281 12.8695L3.63515 13.125C3.61874 13.1297 3.60468 13.1297 3.58593 13.1297Z" fill="#FEA195"/>
<path d="M4.16016 14.7703C4.00313 14.7703 3.85781 14.6672 3.81094 14.5054C3.75469 14.3133 3.86719 14.114 4.06172 14.0578L5.94844 13.5187C6.14063 13.4648 6.34219 13.575 6.39844 13.7695C6.45235 13.9617 6.34219 14.1633 6.14766 14.2172L4.26094 14.7562C4.22578 14.7656 4.19297 14.7703 4.16016 14.7703Z" fill="#FEA195"/>
<path d="M21.4945 13.057C21.3117 13.057 21.1547 12.9188 21.1336 12.7336C21.1231 12.6379 21.151 12.5419 21.2112 12.4667C21.2714 12.3916 21.359 12.3434 21.4547 12.3328L23.407 12.1148C23.6016 12.0984 23.7867 12.2367 23.8078 12.4359C23.8312 12.6375 23.6859 12.8156 23.4867 12.8367L21.5344 13.0547C21.5203 13.0547 21.5062 13.057 21.4945 13.057Z" fill="#FEA195"/>
<path d="M23.3414 14.6953C23.3156 14.6953 23.2898 14.693 23.2617 14.6859L21.3445 14.2664C21.2508 14.2456 21.1692 14.1886 21.1174 14.1078C21.0656 14.027 21.0478 13.929 21.068 13.8351C21.1125 13.6406 21.3047 13.5164 21.4992 13.5586L23.4187 13.9781C23.6133 14.0203 23.7398 14.2148 23.6953 14.4094C23.6601 14.5781 23.5078 14.6953 23.3414 14.6953Z" fill="#FEA195"/>
<path d="M22.6359 16.2797C22.5938 16.2797 22.5492 16.2727 22.507 16.2563L20.6719 15.5625C20.4844 15.4922 20.3883 15.2813 20.4609 15.0938C20.5313 14.9063 20.7422 14.8125 20.9297 14.8828L22.7672 15.5766C22.9547 15.6492 23.0484 15.8578 22.9781 16.0453C22.9219 16.1907 22.7836 16.2797 22.6359 16.2797Z" fill="#FEA195"/>
<path d="M8.43749 2.93438C8.2664 3.37969 7.92187 4.66172 8.13749 5.57344C8.20078 5.84531 8.54765 5.96719 8.79374 5.85C9.30703 5.60391 10.1086 5.17031 10.4086 5.02031C10.9195 4.76953 11.0953 4.45781 10.8187 4.07578C10.4672 3.58828 9.59062 2.57813 9.07265 2.47969C8.77734 2.42344 8.54999 2.64609 8.43749 2.93438Z" fill="#FCD4B5"/>
<path d="M20.5312 4.16722C20.6273 4.63597 20.7492 5.9555 20.3836 6.82269C20.2758 7.07816 19.9125 7.14144 19.6898 6.98441C19.2258 6.65628 18.5109 6.09378 18.2367 5.89691C17.7773 5.56409 17.6531 5.22659 17.9906 4.89612C18.4172 4.47425 19.4508 3.62347 19.9781 3.61409C20.2805 3.60706 20.4703 3.86487 20.5312 4.16722Z" fill="#FCD4B5"/>
</svg>
